<svg width="360" height="280" viewBox="0 0 360 280" xmlns="http://www.w3.org/2000/svg">
  <defs>
    <linearGradient id="hero-bg" x1="0%" y1="0%" x2="100%" y2="100%">
      <stop offset="0%" stop-color="#ffefe6"/>
      <stop offset="45%" stop-color="#ffd7c6"/>
      <stop offset="100%" stop-color="#ffc1b0"/>
    </linearGradient>
    <linearGradient id="hero-brand" x1="0%" y1="0%" x2="100%" y2="100%">
      <stop offset="0%" stop-color="#ff603d"/>
      <stop offset="100%" stop-color="#c3001b"/>
    </linearGradient>
    <linearGradient id="hero-accent" x1="0%" y1="0%" x2="100%" y2="0%">
      <stop offset="0%" stop-color="#ffcf2f"/>
      <stop offset="100%" stop-color="#ff8f2f"/>
    </linearGradient>
  </defs>

  <rect width="360" height="280" rx="32" fill="url(#hero-bg)"/>
  <circle cx="110" cy="140" r="78" fill="url(#hero-brand)" opacity="0.95"/>
  <path d="M70 160 C80 120 110 110 150 120" stroke="url(#hero-accent)" stroke-width="8" fill="none" stroke-linecap="round"/>
  <path d="M85 170 L94 110 L165 110 Q185 110 195 120 T205 150 Q205 175 190 187.5 T152 200 L110 200 L108 220 Z"
        fill="#ffffff" opacity="0.95"/>
  <circle cx="250" cy="70" r="18" fill="url(#hero-accent)" opacity="0.7"/>
  <circle cx="300" cy="220" r="22" fill="url(#hero-accent)" opacity="0.45"/>
  <path d="M255 120 L320 120" stroke="#ff7a45" stroke-width="6" stroke-linecap="round" opacity="0.6"/>
  <path d="M260 150 L325 150" stroke="#ff7a45" stroke-width="6" stroke-linecap="round" opacity="0.4"/>

  <text x="220" y="145" font-family="Lexend Deca, 'Segoe UI', sans-serif" font-size="36" font-weight="700" fill="#b43418">
    Item7
  </text>
  <text x="220" y="182" font-family="Lexend Deca, 'Segoe UI', sans-serif" font-size="24" font-weight="500" fill="#7a2a19">
    Food Truck
  </text>
  <text x="220" y="212" font-family="Lexend Deca, 'Segoe UI', sans-serif" font-size="16" font-weight="500" fill="#8c4d37">
    Fresh. Fast. Allergy-aware.
  </text>
</svg>

