<svg xmlns="http://www.w3.org/2000/svg" viewBox="0 0 100 100">
  <path d="M 25 40 L 30 35 L 35 40 L 40 35 L 45 40 L 50 35 L 55 40 L 60 35 L 65 40 L 70 35 L 75 40" 
        fill="#F9A825" stroke="#F57F17" stroke-width="1"/>
  <path d="M 30 45 L 35 50 L 40 45 L 45 50 L 50 45 L 55 50 L 60 45 L 65 50 L 70 45" 
        fill="#F9A825" stroke="#F57F17" stroke-width="1"/>
  <circle cx="40" cy="42" r="3" fill="#FF5722"/>
  <circle cx="55" cy="42" r="3" fill="#FF5722"/>
  <circle cx="50" cy="47" r="3" fill="#FFEB3B"/>
  <path d="M 35 55 L 45 60 L 50 58 L 60 60 L 65 55" 
        fill="#8D6E63" stroke="#5D4037" stroke-width="1" opacity="0.7"/>
  <ellipse cx="47" cy="62" rx="12" ry="4" fill="#FFC107"/>
  <text x="50" y="95" font-size="10" text-anchor="middle" fill="#333">NACHOS</text>
</svg>

